<svg xmlns="http://www.w3.org/2000/svg" xmlns:xlink="http://www.w3.org/1999/xlink" viewBox="0 0 169.05 193.73"><defs><style>.cls-1{opacity:0.42;fill:url(#Degradado_sin_nombre_73);}.cls-2,.cls-9{fill:#cee5ed;}.cls-2{opacity:0.43;}.cls-3{fill:#aac6ce;}.cls-4{fill:#85b0ba;}.cls-5{fill:#62bdf4;}.cls-15,.cls-6,.cls-8{fill:#34648c;}.cls-7{fill:#67b8ef;}.cls-8{opacity:0.25;}.cls-10{fill:#e5b591;opacity:0.67;}.cls-11,.cls-16{fill:#1e394c;}.cls-12{fill:#0f2a3f;}.cls-13{fill:#efd9bb;}.cls-14{fill:#80a9b2;}.cls-15{opacity:0.29;}.cls-16{opacity:0.48;}.cls-17{fill:#3e8ccc;}.cls-18{fill:#2173aa;}.cls-19{fill:#1a3651;}</style><linearGradient id="Degradado_sin_nombre_73" x1="84.53" y1="155.97" x2="84.53" y2="-9.13" gradientUnits="userSpaceOnUse"><stop offset="0" stop-color="#fff"/><stop offset="0.12" stop-color="#fbf8fb"/><stop offset="0.28" stop-color="#efe6ef"/><stop offset="0.48" stop-color="#dbc7dc"/><stop offset="0.7" stop-color="#bf9cc1"/><stop offset="0.94" stop-color="#9c66a0"/><stop offset="1" stop-color="#925696"/></linearGradient></defs><title>Mesa de trabajo 2</title><g id="OBJECTS"><path class="cls-1" d="M38.36,167.36H130.7a77.74,77.74,0,0,0,34-64.06c0-43.29-35.91-84.59-80.2-84.59S4.32,60,4.32,103.3A77.75,77.75,0,0,0,38.36,167.36Z"/><ellipse class="cls-2" cx="84.53" cy="167.6" rx="84.53" ry="3.33"/><rect class="cls-3" x="53.1" y="127.51" width="3.85" height="36.77"/><rect class="cls-4" x="53.1" y="127.51" width="3.85" height="5.17"/><path class="cls-3" d="M39.63,164.29h32A2.35,2.35,0,0,1,74,166.64v1a0,0,0,0,1,0,0H37.28a0,0,0,0,1,0,0v-1A2.35,2.35,0,0,1,39.63,164.29Z"/><path class="cls-3" d="M45.91,127.55H72.55c-9.69-3.49-5.94-36.29-4.15-48.73a4.15,4.15,0,0,0-4.12-4.74H46.53a7.26,7.26,0,0,0-7.2,6.27c-1.56,11.3-4,34.73.85,43.8A6.49,6.49,0,0,0,45.91,127.55Z"/><path class="cls-5" d="M137.51,53.58H105.63a3,3,0,0,0-3,3V70.9a3,3,0,0,0,3,3h2.23v3.47a.55.55,0,0,0,.93.41l4.31-3.88h24.41a3,3,0,0,0,3-3V56.54A3,3,0,0,0,137.51,53.58Z"/><circle class="cls-6" cx="113.82" cy="63.93" r="1.3"/><circle class="cls-6" cx="121.84" cy="63.93" r="1.3"/><circle class="cls-6" cx="129.32" cy="63.93" r="1.3"/><path class="cls-7" d="M33.13,92.16c0-3.51-2.48-7-5.54-7S22,88.65,22,92.16s2.48,6.37,5.55,6.37S33.13,95.68,33.13,92.16Z"/><path class="cls-8" d="M27.59,85.13a4.31,4.31,0,0,0-1.43.26c2.37.88,4.12,3.82,4.12,6.77a6.28,6.28,0,0,1-4.12,6.15,4.86,4.86,0,0,0,1.43.22c3.06,0,5.54-2.85,5.54-6.37S30.65,85.13,27.59,85.13Z"/><path class="cls-9" d="M21.27,96.32l1,9a2.22,2.22,0,0,0,2.21,2H30.2a2.24,2.24,0,0,0,2.21-2l1-9a.82.82,0,0,0-.82-.91H22.09A.82.82,0,0,0,21.27,96.32Z"/><path class="cls-3" d="M22.09,96.75H32.58a.8.8,0,0,1,.72.46l.1-.89a.82.82,0,0,0-.82-.91H22.09a.82.82,0,0,0-.82.91l.09.89A.81.81,0,0,1,22.09,96.75Z"/><path class="cls-3" d="M32.58,95.41H28.94a.82.82,0,0,1,.82.91l-1,9a2.22,2.22,0,0,1-2.21,2H30.2a2.24,2.24,0,0,0,2.21-2l1-9A.82.82,0,0,0,32.58,95.41Z"/><polygon class="cls-10" points="78.53 158.85 78.15 161.45 80.13 163.99 85.15 161.53 85.69 159.15 79.44 158.21 78.53 158.85"/><path class="cls-11" d="M82.58,167.22l.52-.64a.24.24,0,0,1,.37,0l.52.61a1.12,1.12,0,0,0,.84.38l11.66-.2a.63.63,0,0,0,0-.88c-1.71-1.73-10.9-4.71-11.36-5s-3.27,1.93-7-.08a40.23,40.23,0,0,0-.69,4.81,1.33,1.33,0,0,0,1.35,1.41l3,0A1.08,1.08,0,0,0,82.58,167.22Z"/><path class="cls-11" d="M57.13,114.91s-4.84,5.36,4,11.17c6.21,4.08,11.12,2.84,15,5.31a3.28,3.28,0,0,1,1.67,2.52l.2,25,.47.23a8.61,8.61,0,0,0,7.48.09h0l3.53-28.55c.13-2-.94-3.62-2.16-5.17-6.77-8.63-18.78-11.55-21.81-12C61.61,112.84,57.13,114.91,57.13,114.91Z"/><polygon class="cls-10" points="59.25 158.85 58.84 161.45 60.78 164 65.83 161.62 66.41 159.25 60.18 158.22 59.25 158.85"/><path class="cls-11" d="M63.18,167.27l.53-.63a.24.24,0,0,1,.37,0l.52.62a1.06,1.06,0,0,0,.83.39l11.66,0a.63.63,0,0,0,0-.88c-1.69-1.75-10.84-4.86-11.3-5.11s-3.29,1.89-7-.17a38.6,38.6,0,0,0-.76,4.8,1.33,1.33,0,0,0,1.33,1.42h3A1,1,0,0,0,63.18,167.27Z"/><path class="cls-11" d="M42.42,110.25s-5.87,6.54,2.61,13.92c5.95,5.18,11.29,3,15,6.13a3.49,3.49,0,0,1,1.4,2.89l-2.68,25.45.2.13a8,8,0,0,0,7.82.53h0l6.63-26.81c.42-2.05-.46-4-1.52-5.75-5.88-10-15.13-16-18.25-17C49.62,108.51,42.42,110.25,42.42,110.25Z"/><path class="cls-12" d="M74.78,130.67a11.67,11.67,0,0,0-1.37-.47,11.87,11.87,0,0,0-1.49-3.47,45.88,45.88,0,0,0-10.08-11.81c2.13-.36,3.21-.82,3.8-1.41A40.42,40.42,0,0,1,72,115.23C74.89,120.05,74.88,127.88,74.78,130.67Z"/><path class="cls-9" d="M58.21,75.65s-8.46-1.13-12,5.47-8.76,32.43-4.17,33.21c2,.35,7.45,1.72,13.46,1.28,8.25-.61,10-1.37,10.64-2.94l5.27-24.08a10.2,10.2,0,0,0-4-8.5A28.54,28.54,0,0,0,58.21,75.65Z"/><path class="cls-3" d="M71.39,86.47s.11,14.51,4.67,15.38,16.7.61,16.7.61v4.61h-26Z"/><path class="cls-10" d="M65.09,79.89l1-5.12L59.46,69.7l-1.27,6S60.29,85,65.09,79.89Z"/><path class="cls-11" d="M73.58,65S70.09,66.68,65,63.58a12.08,12.08,0,0,1-4.59,4s-1.78-3-2.8-.75a4.67,4.67,0,0,0-.47,1.83c-3.2-4.14-1-9.58,2-12.52,2.83-2.79,9-1.68,12.77-.14,4.06,1.63,4.81-1.21,4.81-1.21C81.88,62,73.58,65,73.58,65Z"/><path class="cls-13" d="M60.39,67.6s-1.77-3-2.79-.75c-1.24,2.71.16,4.41,1.83,4.41,0,0,1.34,7,7.8,6.54S74.63,66.92,73.58,65c0,0-3.49,1.69-8.59-1.42A12,12,0,0,1,60.39,67.6Z"/><path class="cls-9" d="M116.44,84.06h-27a2.8,2.8,0,0,0-2.74,2.24l-3.6,17.61h32.71l3.36-16.49A2.79,2.79,0,0,0,116.44,84.06Z"/><rect class="cls-14" x="69.78" y="103.91" width="47.27" height="3.1" rx="1.4"/><path class="cls-3" d="M115.71,103.91H82.76a1.34,1.34,0,0,1,1.33,1.34v.43A1.34,1.34,0,0,1,82.76,107h32.95a1.34,1.34,0,0,0,1.34-1.33v-.43A1.34,1.34,0,0,0,115.71,103.91Z"/><path class="cls-9" d="M72.55,103c-5.26-.61-20-2.12-22.53-2.38-3.18-.33,3.74-13.18,4.51-17.58S52,78.45,52,78.45a5.38,5.38,0,0,0-5.72,2.67c-3.59,5.44-7.6,21.37-5.49,25.31a1.42,1.42,0,0,0,1.26.74H72.55Z"/><path class="cls-3" d="M72.55,103s-19-1.31-23.08-1.86c-3.17-.42,3.45-13.59,4.22-18s-2.64-4.21-2.64-4.21a8.33,8.33,0,0,0-3,.28A5.48,5.48,0,0,1,52,78.45s3.35.17,2.58,4.56-6.7,17-4.7,17.47C52.3,101.09,67.29,102.36,72.55,103Z"/><path class="cls-10" d="M72.55,107.24h7.08a.67.67,0,0,0,.56-1c-.67-1-1.71-2.45-2.48-2.7a34.9,34.9,0,0,0-5.16.12Z"/><path class="cls-10" d="M73.58,65a6.06,6.06,0,0,1-1.61.4c-.08.48-.24,1.4-.32,2.27-.12,1.25.5,5.1.12,5.13a11.16,11.16,0,0,1-1.19,0s-.59,5.58-6.17,4.69l-.14,0a7,7,0,0,0,3,.38C73.7,77.3,74.63,66.92,73.58,65Z"/><path class="cls-7" d="M154.73,146s8.89-4.41,6.47-11.1-3.91-7,.71-10.74,11.31-13.23,2.85-13.94-8,10.52-15.08,12.09S138.79,153.32,154.73,146Z"/><path class="cls-8" d="M147.73,146.65c1.71.79,4,.72,7-.66,0,0,8.89-4.41,6.47-11.1s-3.91-7,.71-10.74,11.31-13.23,2.85-13.94a7.87,7.87,0,0,0-2.26.12c2.38,1,4.76,3,1.69,6.58-5.1,6-7.83,8.19-7.23,12.1S157.21,141.49,147.73,146.65Z"/><path class="cls-7" d="M139.65,145.77s-7.83-.28-7.4-5.9.64-5.84-4.27-7.61c-8.68-3.13-1.81-19.8,5.27-9.32,4.9,7.27,7,5.64,10.24,6.21S153.66,148.26,139.65,145.77Z"/><path class="cls-15" d="M143.49,129.15c-3.2-.57-5.34,1.06-10.24-6.21-3.71-5.49-7.35-3.53-8.74,0,2.08-.64,5.25-1,5.64,2.36.51,4.4,10.8,11.62,10.59,20.6l.4,0c1.5-4,3.47-9.07,5.16-13.43C145.4,130.65,144.32,129.29,143.49,129.15Z"/><path class="cls-6" d="M141.46,145.53s-9.71-9.5-6.4-11.1,9.82,3.63,6.19-2-7.85-14.46-2.84-13.08,5.38,2.91,4.76-3.67c-.8-8.52,4-12.91,8.43-10.14s-3.84,21.56-.75,19.53,5.66-3.74,6.3-1.28-8.86,12.09-5.34,10.45c4.38-2,5,1.61,3.63,3.85S148.29,153.64,141.46,145.53Z"/><path class="cls-16" d="M155.44,138.06c1.39-2.24.75-5.87-3.63-3.85-3.52,1.64,6-8,5.34-10.45s-3.2-.75-6.3,1.28,5.23-16.75.75-19.53a4.59,4.59,0,0,0-5.84.49c2.32.57,4.18,2.43,2.89,7.47-2.72,10.68-4.38,19.57.6,17,4.69-2.45-5.45,8.87-5.56,17C149.52,150.79,154.21,140.05,155.44,138.06Z"/><path class="cls-9" d="M134.74,146.64l1.88,17a4.19,4.19,0,0,0,4.17,3.74h10.85a4.2,4.2,0,0,0,4.17-3.74l1.88-17a1.57,1.57,0,0,0-1.56-1.74H136.29A1.56,1.56,0,0,0,134.74,146.64Z"/><path class="cls-3" d="M156.13,144.9h-6.88a1.57,1.57,0,0,1,1.56,1.74l-1.88,17a4.2,4.2,0,0,1-4.17,3.74h6.88a4.2,4.2,0,0,0,4.17-3.74l1.88-17A1.57,1.57,0,0,0,156.13,144.9Z"/><rect class="cls-17" x="16.38" y="107.18" width="121.02" height="5.49" rx="2.49"/><path class="cls-18" d="M135,107.18H18.75a2.37,2.37,0,0,0-2.37,2.37v.76a2.18,2.18,0,0,0,.13.72,2.35,2.35,0,0,1,2.24-1.65H135a2.35,2.35,0,0,1,2.24,1.65,2.47,2.47,0,0,0,.12-.72v-.76A2.36,2.36,0,0,0,135,107.18Z"/><polygon class="cls-6" points="55.51 167.47 51.62 167.47 24.58 112.7 28.46 112.7 55.51 167.47"/><polygon class="cls-6" points="12.71 167.47 16.6 167.47 43.64 112.7 39.75 112.7 12.71 167.47"/><polygon class="cls-6" points="139.22 167.47 135.34 167.47 108.3 112.7 112.18 112.7 139.22 167.47"/><polygon class="cls-6" points="96.43 167.47 100.32 167.47 127.36 112.7 123.47 112.7 96.43 167.47"/><polygon class="cls-19" points="29.54 114.87 28.46 112.7 24.58 112.7 25.65 114.87 29.54 114.87"/><polygon class="cls-19" points="42.57 114.87 43.64 112.7 39.75 112.7 38.68 114.87 42.57 114.87"/><polygon class="cls-19" points="113.25 114.87 112.18 112.7 108.3 112.7 109.37 114.87 113.25 114.87"/><polygon class="cls-19" points="126.29 114.87 127.36 112.7 123.47 112.7 122.4 114.87 126.29 114.87"/></g></svg>